<mxfile host="app.diagrams.net" agent="Mozilla/5.0 (Macintosh; Intel Mac OS X 10_14_6) AppleWebKit/605.1.15 (KHTML, like Gecko) Version/14.1.2 Safari/605.1.15" version="24.8.3">
  <diagram name="Page-1" id="JNNMsCdFVjWHwH4HeEpe">
    <mxGraphModel dx="795" dy="453" grid="1" gridSize="10" guides="1" tooltips="1" connect="1" arrows="1" fold="1" page="1" pageScale="1" pageWidth="850" pageHeight="1100" math="0" shadow="0">
      <root>
        <mxCell id="0" />
        <mxCell id="1" parent="0" />
        <mxCell id="EblbpX1gaJVEb5riWeuY-68" value="External&amp;nbsp;&lt;div&gt;Network Load Balancer&lt;/div&gt;&lt;div&gt;(v2)&lt;/div&gt;" style="rounded=1;whiteSpace=wrap;html=1;fillColor=none;" vertex="1" parent="1">
          <mxGeometry x="305" y="140" width="135" height="250" as="geometry" />
        </mxCell>
        <mxCell id="EblbpX1gaJVEb5riWeuY-65" value="" style="sketch=0;outlineConnect=0;fontColor=#232F3E;gradientColor=none;fillColor=#8C4FFF;strokeColor=none;dashed=0;verticalLabelPosition=bottom;verticalAlign=top;align=center;html=1;fontSize=12;fontStyle=0;aspect=fixed;pointerEvents=1;shape=mxgraph.aws4.network_load_balancer;" vertex="1" parent="1">
          <mxGeometry x="338.5" y="290" width="68" height="68" as="geometry" />
        </mxCell>
        <mxCell id="EblbpX1gaJVEb5riWeuY-66" value="" style="rounded=1;whiteSpace=wrap;html=1;fillColor=none;align=left;" vertex="1" parent="1">
          <mxGeometry x="540" y="110" width="380" height="130" as="geometry" />
        </mxCell>
        <mxCell id="EblbpX1gaJVEb5riWeuY-67" value="" style="rounded=1;whiteSpace=wrap;html=1;fillColor=none;" vertex="1" parent="1">
          <mxGeometry x="540" y="270" width="380" height="140" as="geometry" />
        </mxCell>
        <mxCell id="EblbpX1gaJVEb5riWeuY-73" value="" style="outlineConnect=0;dashed=0;verticalLabelPosition=bottom;verticalAlign=top;align=center;html=1;shape=mxgraph.aws3.ec2;fillColor=#F58534;gradientColor=none;" vertex="1" parent="1">
          <mxGeometry x="720" y="110" width="36.5" height="43" as="geometry" />
        </mxCell>
        <mxCell id="EblbpX1gaJVEb5riWeuY-74" value="" style="outlineConnect=0;dashed=0;verticalLabelPosition=bottom;verticalAlign=top;align=center;html=1;shape=mxgraph.aws3.ec2;fillColor=#F58534;gradientColor=none;" vertex="1" parent="1">
          <mxGeometry x="720" y="180" width="36.5" height="43" as="geometry" />
        </mxCell>
        <mxCell id="EblbpX1gaJVEb5riWeuY-75" value="" style="outlineConnect=0;dashed=0;verticalLabelPosition=bottom;verticalAlign=top;align=center;html=1;shape=mxgraph.aws3.ec2;fillColor=#F58534;gradientColor=none;" vertex="1" parent="1">
          <mxGeometry x="720" y="280" width="36.5" height="43" as="geometry" />
        </mxCell>
        <mxCell id="EblbpX1gaJVEb5riWeuY-76" value="" style="outlineConnect=0;dashed=0;verticalLabelPosition=bottom;verticalAlign=top;align=center;html=1;shape=mxgraph.aws3.ec2;fillColor=#F58534;gradientColor=none;" vertex="1" parent="1">
          <mxGeometry x="720" y="350" width="36.5" height="43" as="geometry" />
        </mxCell>
        <mxCell id="EblbpX1gaJVEb5riWeuY-77" value="" style="rounded=1;whiteSpace=wrap;html=1;fillColor=none;" vertex="1" parent="1">
          <mxGeometry x="870" y="120" width="40" height="100" as="geometry" />
        </mxCell>
        <mxCell id="EblbpX1gaJVEb5riWeuY-78" value="" style="rounded=1;whiteSpace=wrap;html=1;fillColor=none;" vertex="1" parent="1">
          <mxGeometry x="870" y="293" width="40" height="100" as="geometry" />
        </mxCell>
        <mxCell id="EblbpX1gaJVEb5riWeuY-79" value="&lt;span style=&quot;text-align: left;&quot;&gt;Target Group for&amp;nbsp;&lt;/span&gt;&lt;div style=&quot;text-align: left;&quot;&gt;Users&lt;/div&gt;&lt;div style=&quot;text-align: left;&quot;&gt;Application&lt;/div&gt;" style="text;html=1;align=center;verticalAlign=middle;whiteSpace=wrap;rounded=0;direction=east;rotation=-90;" vertex="1" parent="1">
          <mxGeometry x="520" y="138.5" width="100" height="63" as="geometry" />
        </mxCell>
        <mxCell id="EblbpX1gaJVEb5riWeuY-80" value="&lt;span style=&quot;text-align: left;&quot;&gt;Target Group for&amp;nbsp;&lt;/span&gt;&lt;div style=&quot;text-align: left;&quot;&gt;Search&lt;/div&gt;&lt;div style=&quot;text-align: left;&quot;&gt;Application&lt;/div&gt;" style="text;html=1;align=center;verticalAlign=middle;whiteSpace=wrap;rounded=0;direction=east;rotation=-90;" vertex="1" parent="1">
          <mxGeometry x="530" y="307" width="100" height="63" as="geometry" />
        </mxCell>
        <mxCell id="EblbpX1gaJVEb5riWeuY-81" value="&lt;div style=&quot;text-align: left;&quot;&gt;Health Check&lt;/div&gt;" style="text;html=1;align=center;verticalAlign=middle;whiteSpace=wrap;rounded=0;direction=east;rotation=-90;fillColor=#d5e8d4;strokeColor=#82b366;" vertex="1" parent="1">
          <mxGeometry x="839.25" y="149.25" width="100" height="41.5" as="geometry" />
        </mxCell>
        <mxCell id="EblbpX1gaJVEb5riWeuY-82" value="&lt;div style=&quot;text-align: left;&quot;&gt;Health Check&lt;/div&gt;" style="text;html=1;align=center;verticalAlign=middle;whiteSpace=wrap;rounded=0;direction=east;rotation=-90;fillColor=#d5e8d4;strokeColor=#82b366;" vertex="1" parent="1">
          <mxGeometry x="839.25" y="317.75" width="100" height="41.5" as="geometry" />
        </mxCell>
        <mxCell id="EblbpX1gaJVEb5riWeuY-83" value="" style="endArrow=classic;html=1;rounded=0;entryX=0.5;entryY=0;entryDx=0;entryDy=0;exitX=1.01;exitY=0.125;exitDx=0;exitDy=0;exitPerimeter=0;" edge="1" parent="1" source="EblbpX1gaJVEb5riWeuY-68" target="EblbpX1gaJVEb5riWeuY-79">
          <mxGeometry width="50" height="50" relative="1" as="geometry">
            <mxPoint x="430" y="270" as="sourcePoint" />
            <mxPoint x="480" y="220" as="targetPoint" />
          </mxGeometry>
        </mxCell>
        <mxCell id="EblbpX1gaJVEb5riWeuY-84" value="" style="endArrow=classic;html=1;rounded=0;entryX=0.5;entryY=0;entryDx=0;entryDy=0;exitX=1.01;exitY=0.125;exitDx=0;exitDy=0;exitPerimeter=0;" edge="1" parent="1">
          <mxGeometry width="50" height="50" relative="1" as="geometry">
            <mxPoint x="442" y="338.75" as="sourcePoint" />
            <mxPoint x="540" y="337.75" as="targetPoint" />
          </mxGeometry>
        </mxCell>
        <mxCell id="EblbpX1gaJVEb5riWeuY-89" style="edgeStyle=orthogonalEdgeStyle;rounded=0;orthogonalLoop=1;jettySize=auto;html=1;entryX=0;entryY=0.25;entryDx=0;entryDy=0;" edge="1" parent="1" source="EblbpX1gaJVEb5riWeuY-85" target="EblbpX1gaJVEb5riWeuY-68">
          <mxGeometry relative="1" as="geometry" />
        </mxCell>
        <mxCell id="EblbpX1gaJVEb5riWeuY-85" value="WWW" style="text;html=1;align=center;verticalAlign=middle;whiteSpace=wrap;rounded=0;" vertex="1" parent="1">
          <mxGeometry x="80" y="186.5" width="60" height="30" as="geometry" />
        </mxCell>
        <mxCell id="EblbpX1gaJVEb5riWeuY-87" value="WWW" style="text;html=1;align=center;verticalAlign=middle;whiteSpace=wrap;rounded=0;" vertex="1" parent="1">
          <mxGeometry x="80" y="329.25" width="60" height="30" as="geometry" />
        </mxCell>
        <mxCell id="EblbpX1gaJVEb5riWeuY-88" style="edgeStyle=orthogonalEdgeStyle;rounded=0;orthogonalLoop=1;jettySize=auto;html=1;entryX=0.028;entryY=0.819;entryDx=0;entryDy=0;entryPerimeter=0;" edge="1" parent="1" source="EblbpX1gaJVEb5riWeuY-87" target="EblbpX1gaJVEb5riWeuY-68">
          <mxGeometry relative="1" as="geometry" />
        </mxCell>
        <mxCell id="EblbpX1gaJVEb5riWeuY-90" value="TCP + Rules" style="text;html=1;align=center;verticalAlign=middle;resizable=0;points=[];autosize=1;strokeColor=none;fillColor=none;" vertex="1" parent="1">
          <mxGeometry x="160" y="180" width="90" height="30" as="geometry" />
        </mxCell>
        <mxCell id="EblbpX1gaJVEb5riWeuY-91" value="TCP + Rules" style="text;html=1;align=center;verticalAlign=middle;resizable=0;points=[];autosize=1;strokeColor=none;fillColor=none;" vertex="1" parent="1">
          <mxGeometry x="160" y="317.75" width="90" height="30" as="geometry" />
        </mxCell>
        <mxCell id="EblbpX1gaJVEb5riWeuY-92" value="TCP" style="text;html=1;align=center;verticalAlign=middle;resizable=0;points=[];autosize=1;strokeColor=none;fillColor=none;" vertex="1" parent="1">
          <mxGeometry x="455" y="148" width="50" height="30" as="geometry" />
        </mxCell>
        <mxCell id="EblbpX1gaJVEb5riWeuY-93" value="HTTP" style="text;html=1;align=center;verticalAlign=middle;resizable=0;points=[];autosize=1;strokeColor=none;fillColor=none;" vertex="1" parent="1">
          <mxGeometry x="455" y="317.75" width="50" height="30" as="geometry" />
        </mxCell>
        <mxCell id="EblbpX1gaJVEb5riWeuY-94" value="Network Load Balancer (v2)&lt;div&gt;TCP (Layer 4) Based Traffic&lt;/div&gt;" style="text;html=1;align=center;verticalAlign=middle;resizable=0;points=[];autosize=1;strokeColor=none;fillColor=none;" vertex="1" parent="1">
          <mxGeometry x="195" y="23" width="170" height="40" as="geometry" />
        </mxCell>
        <mxCell id="EblbpX1gaJVEb5riWeuY-107" style="edgeStyle=orthogonalEdgeStyle;rounded=0;orthogonalLoop=1;jettySize=auto;html=1;" edge="1" parent="1" source="EblbpX1gaJVEb5riWeuY-95" target="EblbpX1gaJVEb5riWeuY-99">
          <mxGeometry relative="1" as="geometry">
            <Array as="points">
              <mxPoint x="182" y="610" />
              <mxPoint x="258" y="610" />
            </Array>
          </mxGeometry>
        </mxCell>
        <mxCell id="EblbpX1gaJVEb5riWeuY-95" value="" style="sketch=0;outlineConnect=0;fontColor=#232F3E;gradientColor=none;fillColor=#8C4FFF;strokeColor=none;dashed=0;verticalLabelPosition=bottom;verticalAlign=top;align=center;html=1;fontSize=12;fontStyle=0;aspect=fixed;pointerEvents=1;shape=mxgraph.aws4.network_load_balancer;" vertex="1" parent="1">
          <mxGeometry x="150" y="518" width="64" height="64" as="geometry" />
        </mxCell>
        <mxCell id="EblbpX1gaJVEb5riWeuY-97" value="" style="rounded=0;whiteSpace=wrap;html=1;fillColor=none;dashed=1;dashPattern=8 8;" vertex="1" parent="1">
          <mxGeometry x="60" y="630" width="290" height="190" as="geometry" />
        </mxCell>
        <mxCell id="EblbpX1gaJVEb5riWeuY-98" value="I-12343cdcfv" style="outlineConnect=0;dashed=0;verticalLabelPosition=bottom;verticalAlign=top;align=center;html=1;shape=mxgraph.aws3.ec2;fillColor=#F58534;gradientColor=none;" vertex="1" parent="1">
          <mxGeometry x="110" y="668.5" width="56.5" height="63" as="geometry" />
        </mxCell>
        <mxCell id="EblbpX1gaJVEb5riWeuY-99" value="I-55bhbh343b" style="outlineConnect=0;dashed=0;verticalLabelPosition=bottom;verticalAlign=top;align=center;html=1;shape=mxgraph.aws3.ec2;fillColor=#F58534;gradientColor=none;" vertex="1" parent="1">
          <mxGeometry x="230" y="668.5" width="56.5" height="63" as="geometry" />
        </mxCell>
        <mxCell id="EblbpX1gaJVEb5riWeuY-106" style="edgeStyle=orthogonalEdgeStyle;rounded=0;orthogonalLoop=1;jettySize=auto;html=1;" edge="1" parent="1" source="EblbpX1gaJVEb5riWeuY-100" target="EblbpX1gaJVEb5riWeuY-104">
          <mxGeometry relative="1" as="geometry">
            <Array as="points">
              <mxPoint x="552" y="600" />
              <mxPoint x="623" y="600" />
            </Array>
          </mxGeometry>
        </mxCell>
        <mxCell id="EblbpX1gaJVEb5riWeuY-100" value="" style="sketch=0;outlineConnect=0;fontColor=#232F3E;gradientColor=none;fillColor=#8C4FFF;strokeColor=none;dashed=0;verticalLabelPosition=bottom;verticalAlign=top;align=center;html=1;fontSize=12;fontStyle=0;aspect=fixed;pointerEvents=1;shape=mxgraph.aws4.network_load_balancer;" vertex="1" parent="1">
          <mxGeometry x="520" y="518" width="64" height="64" as="geometry" />
        </mxCell>
        <mxCell id="EblbpX1gaJVEb5riWeuY-101" value="" style="rounded=0;whiteSpace=wrap;html=1;fillColor=none;dashed=1;dashPattern=8 8;" vertex="1" parent="1">
          <mxGeometry x="410" y="630" width="300" height="190" as="geometry" />
        </mxCell>
        <mxCell id="EblbpX1gaJVEb5riWeuY-102" value="192.168.12.118" style="outlineConnect=0;dashed=0;verticalLabelPosition=bottom;verticalAlign=top;align=center;html=1;shape=mxgraph.aws3.ec2;fillColor=#F58534;gradientColor=none;" vertex="1" parent="1">
          <mxGeometry x="455" y="676" width="56.5" height="63" as="geometry" />
        </mxCell>
        <mxCell id="EblbpX1gaJVEb5riWeuY-104" value="10.2.4.23" style="sketch=0;outlineConnect=0;fontColor=#232F3E;gradientColor=none;fillColor=#232F3D;strokeColor=none;dashed=0;verticalLabelPosition=bottom;verticalAlign=top;align=center;html=1;fontSize=12;fontStyle=0;aspect=fixed;pointerEvents=1;shape=mxgraph.aws4.traditional_server;" vertex="1" parent="1">
          <mxGeometry x="600" y="661" width="45" height="78" as="geometry" />
        </mxCell>
        <mxCell id="EblbpX1gaJVEb5riWeuY-105" style="edgeStyle=orthogonalEdgeStyle;rounded=0;orthogonalLoop=1;jettySize=auto;html=1;entryX=0.5;entryY=0;entryDx=0;entryDy=0;entryPerimeter=0;" edge="1" parent="1" source="EblbpX1gaJVEb5riWeuY-100" target="EblbpX1gaJVEb5riWeuY-102">
          <mxGeometry relative="1" as="geometry">
            <Array as="points">
              <mxPoint x="552" y="600" />
              <mxPoint x="483" y="600" />
            </Array>
          </mxGeometry>
        </mxCell>
        <mxCell id="EblbpX1gaJVEb5riWeuY-108" style="edgeStyle=orthogonalEdgeStyle;rounded=0;orthogonalLoop=1;jettySize=auto;html=1;entryX=0.5;entryY=0;entryDx=0;entryDy=0;entryPerimeter=0;" edge="1" parent="1" source="EblbpX1gaJVEb5riWeuY-95" target="EblbpX1gaJVEb5riWeuY-98">
          <mxGeometry relative="1" as="geometry">
            <Array as="points">
              <mxPoint x="182" y="610" />
              <mxPoint x="138" y="610" />
            </Array>
          </mxGeometry>
        </mxCell>
        <mxCell id="EblbpX1gaJVEb5riWeuY-109" value="Target Group&lt;div&gt;(EC2 Instances)&lt;/div&gt;" style="text;html=1;align=center;verticalAlign=middle;whiteSpace=wrap;rounded=0;" vertex="1" parent="1">
          <mxGeometry x="142" y="780" width="126" height="30" as="geometry" />
        </mxCell>
        <mxCell id="EblbpX1gaJVEb5riWeuY-110" value="Target Group&lt;div&gt;(IP Addresses)&lt;/div&gt;" style="text;html=1;align=center;verticalAlign=middle;whiteSpace=wrap;rounded=0;" vertex="1" parent="1">
          <mxGeometry x="504" y="780" width="126" height="30" as="geometry" />
        </mxCell>
        <mxCell id="EblbpX1gaJVEb5riWeuY-111" value="Network Load Balancer" style="text;html=1;align=center;verticalAlign=middle;whiteSpace=wrap;rounded=0;" vertex="1" parent="1">
          <mxGeometry x="195" y="535" width="126" height="30" as="geometry" />
        </mxCell>
        <mxCell id="EblbpX1gaJVEb5riWeuY-112" value="Network Load Balancer" style="text;html=1;align=center;verticalAlign=middle;whiteSpace=wrap;rounded=0;" vertex="1" parent="1">
          <mxGeometry x="570" y="530" width="126" height="40" as="geometry" />
        </mxCell>
        <mxCell id="EblbpX1gaJVEb5riWeuY-114" value="" style="rounded=0;whiteSpace=wrap;html=1;fillColor=none;dashed=1;dashPattern=8 8;" vertex="1" parent="1">
          <mxGeometry x="810" y="630" width="300" height="190" as="geometry" />
        </mxCell>
        <mxCell id="EblbpX1gaJVEb5riWeuY-118" value="Target Group&lt;div&gt;(Application Load Balancer)&lt;/div&gt;" style="text;html=1;align=center;verticalAlign=middle;whiteSpace=wrap;rounded=0;" vertex="1" parent="1">
          <mxGeometry x="904" y="770" width="126" height="30" as="geometry" />
        </mxCell>
        <mxCell id="EblbpX1gaJVEb5riWeuY-119" value="Network Load Balancer" style="text;html=1;align=center;verticalAlign=middle;whiteSpace=wrap;rounded=0;" vertex="1" parent="1">
          <mxGeometry x="984" y="530" width="126" height="40" as="geometry" />
        </mxCell>
        <mxCell id="EblbpX1gaJVEb5riWeuY-122" style="edgeStyle=orthogonalEdgeStyle;rounded=0;orthogonalLoop=1;jettySize=auto;html=1;" edge="1" parent="1" source="EblbpX1gaJVEb5riWeuY-120" target="EblbpX1gaJVEb5riWeuY-121">
          <mxGeometry relative="1" as="geometry" />
        </mxCell>
        <mxCell id="EblbpX1gaJVEb5riWeuY-120" value="" style="sketch=0;outlineConnect=0;fontColor=#232F3E;gradientColor=none;fillColor=#8C4FFF;strokeColor=none;dashed=0;verticalLabelPosition=bottom;verticalAlign=top;align=center;html=1;fontSize=12;fontStyle=0;aspect=fixed;pointerEvents=1;shape=mxgraph.aws4.network_load_balancer;" vertex="1" parent="1">
          <mxGeometry x="935" y="518" width="64" height="64" as="geometry" />
        </mxCell>
        <mxCell id="EblbpX1gaJVEb5riWeuY-121" value="" style="sketch=0;outlineConnect=0;fontColor=#232F3E;gradientColor=none;fillColor=#8C4FFF;strokeColor=none;dashed=0;verticalLabelPosition=bottom;verticalAlign=top;align=center;html=1;fontSize=12;fontStyle=0;aspect=fixed;pointerEvents=1;shape=mxgraph.aws4.application_load_balancer;" vertex="1" parent="1">
          <mxGeometry x="938" y="700" width="58" height="58" as="geometry" />
        </mxCell>
        <mxCell id="EblbpX1gaJVEb5riWeuY-123" value="Gateway Load Balancer&lt;div&gt;&lt;br&gt;&lt;/div&gt;" style="text;html=1;align=center;verticalAlign=middle;whiteSpace=wrap;rounded=0;" vertex="1" parent="1">
          <mxGeometry x="286.5" y="920" width="190" height="30" as="geometry" />
        </mxCell>
        <mxCell id="EblbpX1gaJVEb5riWeuY-138" style="edgeStyle=orthogonalEdgeStyle;rounded=0;orthogonalLoop=1;jettySize=auto;html=1;" edge="1" parent="1" source="EblbpX1gaJVEb5riWeuY-125" target="EblbpX1gaJVEb5riWeuY-130">
          <mxGeometry relative="1" as="geometry" />
        </mxCell>
        <mxCell id="EblbpX1gaJVEb5riWeuY-125" value="" style="sketch=0;outlineConnect=0;fontColor=#232F3E;gradientColor=none;fillColor=#232F3D;strokeColor=none;dashed=0;verticalLabelPosition=bottom;verticalAlign=top;align=center;html=1;fontSize=12;fontStyle=0;aspect=fixed;pointerEvents=1;shape=mxgraph.aws4.users;" vertex="1" parent="1">
          <mxGeometry x="160" y="1000" width="78" height="78" as="geometry" />
        </mxCell>
        <mxCell id="EblbpX1gaJVEb5riWeuY-126" value="" style="sketch=0;outlineConnect=0;fontColor=#232F3E;gradientColor=none;fillColor=#8C4FFF;strokeColor=none;dashed=0;verticalLabelPosition=bottom;verticalAlign=top;align=center;html=1;fontSize=12;fontStyle=0;aspect=fixed;pointerEvents=1;shape=mxgraph.aws4.route_table;" vertex="1" parent="1">
          <mxGeometry x="380" y="1080" width="78" height="76" as="geometry" />
        </mxCell>
        <mxCell id="EblbpX1gaJVEb5riWeuY-129" value="" style="outlineConnect=0;dashed=0;verticalLabelPosition=bottom;verticalAlign=top;align=center;html=1;shape=mxgraph.aws3.ec2;fillColor=#F58534;gradientColor=none;" vertex="1" parent="1">
          <mxGeometry x="710" y="1050" width="76.5" height="93" as="geometry" />
        </mxCell>
        <mxCell id="EblbpX1gaJVEb5riWeuY-130" value="" style="sketch=0;outlineConnect=0;fontColor=#232F3E;gradientColor=none;fillColor=#8C4FFF;strokeColor=none;dashed=0;verticalLabelPosition=bottom;verticalAlign=top;align=center;html=1;fontSize=12;fontStyle=0;aspect=fixed;pointerEvents=1;shape=mxgraph.aws4.gateway_load_balancer;" vertex="1" parent="1">
          <mxGeometry x="542" y="1310" width="78" height="78" as="geometry" />
        </mxCell>
        <mxCell id="EblbpX1gaJVEb5riWeuY-131" value="" style="pointerEvents=1;shadow=0;dashed=0;html=1;strokeColor=#36393d;fillColor=#ffcccc;labelPosition=center;verticalLabelPosition=bottom;verticalAlign=top;align=center;outlineConnect=0;shape=mxgraph.veeam.cpu;" vertex="1" parent="1">
          <mxGeometry x="505" y="1470" width="44.8" height="44.8" as="geometry" />
        </mxCell>
        <mxCell id="EblbpX1gaJVEb5riWeuY-132" value="" style="pointerEvents=1;shadow=0;dashed=0;html=1;strokeColor=#36393d;fillColor=#ffcccc;labelPosition=center;verticalLabelPosition=bottom;verticalAlign=top;align=center;outlineConnect=0;shape=mxgraph.veeam.cpu;" vertex="1" parent="1">
          <mxGeometry x="575.2" y="1470" width="44.8" height="44.8" as="geometry" />
        </mxCell>
        <mxCell id="EblbpX1gaJVEb5riWeuY-133" value="" style="pointerEvents=1;shadow=0;dashed=0;html=1;strokeColor=#36393d;fillColor=#ffcccc;labelPosition=center;verticalLabelPosition=bottom;verticalAlign=top;align=center;outlineConnect=0;shape=mxgraph.veeam.cpu;" vertex="1" parent="1">
          <mxGeometry x="640" y="1470" width="44.8" height="44.8" as="geometry" />
        </mxCell>
        <mxCell id="EblbpX1gaJVEb5riWeuY-134" value="" style="rounded=0;whiteSpace=wrap;html=1;fillColor=none;" vertex="1" parent="1">
          <mxGeometry x="490" y="1440" width="210" height="120" as="geometry" />
        </mxCell>
        <mxCell id="EblbpX1gaJVEb5riWeuY-135" value="3rd party Security Virtual Appliances" style="text;html=1;align=center;verticalAlign=middle;whiteSpace=wrap;rounded=0;" vertex="1" parent="1">
          <mxGeometry x="511.5" y="1530" width="180" height="30" as="geometry" />
        </mxCell>
        <mxCell id="EblbpX1gaJVEb5riWeuY-136" value="Target Group" style="text;html=1;align=center;verticalAlign=middle;whiteSpace=wrap;rounded=0;" vertex="1" parent="1">
          <mxGeometry x="535" y="1440" width="133" height="30" as="geometry" />
        </mxCell>
        <mxCell id="EblbpX1gaJVEb5riWeuY-140" value="" style="endArrow=classic;html=1;rounded=0;exitX=0.5;exitY=0;exitDx=0;exitDy=0;" edge="1" parent="1" source="EblbpX1gaJVEb5riWeuY-136">
          <mxGeometry width="50" height="50" relative="1" as="geometry">
            <mxPoint x="540" y="1430" as="sourcePoint" />
            <mxPoint x="602" y="1390" as="targetPoint" />
          </mxGeometry>
        </mxCell>
        <mxCell id="EblbpX1gaJVEb5riWeuY-141" value="" style="endArrow=classic;html=1;rounded=0;entryX=0.188;entryY=0;entryDx=0;entryDy=0;entryPerimeter=0;" edge="1" parent="1" target="EblbpX1gaJVEb5riWeuY-136">
          <mxGeometry width="50" height="50" relative="1" as="geometry">
            <mxPoint x="560" y="1390" as="sourcePoint" />
            <mxPoint x="612" y="1400" as="targetPoint" />
          </mxGeometry>
        </mxCell>
        <mxCell id="EblbpX1gaJVEb5riWeuY-142" style="edgeStyle=orthogonalEdgeStyle;rounded=0;orthogonalLoop=1;jettySize=auto;html=1;entryX=0;entryY=0.5;entryDx=0;entryDy=0;entryPerimeter=0;" edge="1" parent="1" target="EblbpX1gaJVEb5riWeuY-129">
          <mxGeometry relative="1" as="geometry">
            <mxPoint x="610" y="1320" as="sourcePoint" />
            <Array as="points">
              <mxPoint x="610" y="1097" />
            </Array>
          </mxGeometry>
        </mxCell>
        <mxCell id="EblbpX1gaJVEb5riWeuY-144" value="Gateway Load Balancer" style="text;html=1;align=center;verticalAlign=middle;resizable=0;points=[];autosize=1;strokeColor=none;fillColor=none;" vertex="1" parent="1">
          <mxGeometry x="620" y="1334" width="150" height="30" as="geometry" />
        </mxCell>
        <mxCell id="EblbpX1gaJVEb5riWeuY-145" value="Application (destination)" style="text;html=1;align=center;verticalAlign=middle;resizable=0;points=[];autosize=1;strokeColor=none;fillColor=none;" vertex="1" parent="1">
          <mxGeometry x="673.25" y="1143" width="150" height="30" as="geometry" />
        </mxCell>
        <mxCell id="EblbpX1gaJVEb5riWeuY-146" value="Route&amp;nbsp;&lt;div&gt;Table&lt;/div&gt;" style="text;html=1;align=center;verticalAlign=middle;resizable=0;points=[];autosize=1;strokeColor=none;fillColor=none;" vertex="1" parent="1">
          <mxGeometry x="380" y="1003" width="60" height="40" as="geometry" />
        </mxCell>
        <mxCell id="EblbpX1gaJVEb5riWeuY-147" value="Traffic" style="text;html=1;align=center;verticalAlign=middle;resizable=0;points=[];autosize=1;strokeColor=none;fillColor=none;" vertex="1" parent="1">
          <mxGeometry x="520" y="1178" width="60" height="30" as="geometry" />
        </mxCell>
        <mxCell id="EblbpX1gaJVEb5riWeuY-148" value="Traffic" style="text;html=1;align=center;verticalAlign=middle;resizable=0;points=[];autosize=1;strokeColor=none;fillColor=none;" vertex="1" parent="1">
          <mxGeometry x="600" y="1188" width="60" height="30" as="geometry" />
        </mxCell>
      </root>
    </mxGraphModel>
  </diagram>
</mxfile>
